<svg aria-hidden="true" style="width:0;height:0;position:absolute;overflow:hidden" xmlns="http://www.w3.org/2000/svg"><defs><symbol id="icon-logo" viewBox="0 0 44 32"><path fill="#ffe550" style="fill:var(--color1,#ffe550)" d="M16.394 6.486c1.012-1.989 3.853-1.989 4.865 0l1.259 2.476a2.731 2.731 0 0 0 2.002 1.458l2.752.439c2.197.351 3.074 3.042 1.504 4.62l-1.981 1.991a2.726 2.726 0 0 0-.761 2.349l.435 2.769c.346 2.202-1.951 3.868-3.937 2.854l-2.465-1.259a2.729 2.729 0 0 0-2.482 0l-2.465 1.259c-1.985 1.014-4.283-.652-3.937-2.854l.435-2.769a2.732 2.732 0 0 0-.761-2.349l-1.981-1.991c-1.57-1.577-.693-4.269 1.504-4.62l2.752-.439a2.73 2.73 0 0 0 2.002-1.458l1.259-2.476z"/><path fill="#2c2c2c" style="fill:var(--color2,#2c2c2c)" d="m3.427 20.356-.021.005c.003.074-.001.374-.012.9-.003.524-.005.869-.003 1.033 0 .157-.004.285-.01.384l.001.336c-.002.12-.008.219-.02.296l-.019.206c-.014.13-.042.201-.085.211-.092.022-.236-.049-.431-.212-.197-.17-.311-.319-.341-.446s-.037-1.061-.021-2.8c.023-1.741-.022-2.885-.137-3.434a.421.421 0 0 1 .014-.273c.036-.166.22-.321.551-.467.339-.148.845-.301 1.517-.461.68-.161 1.219-.252 1.618-.272.406-.022.624.031.654.159.02.085-.026.159-.138.223s-.212.117-.299.161a55.15 55.15 0 0 1-.349.139c-.145.049-.28.096-.404.141-.126.037-.289.091-.489.161-.193.068-.372.133-.537.195-.167.055-.391.134-.673.238s-.465.17-.548.197c.012.02.023.051.033.093.079.333.121 1.131.127 2.393.444-.083.912-.205 1.405-.367.5-.163.806-.259.92-.286.269-.064.417-.039.444.074.052.22-.213.477-.794.772a8.7 8.7 0 0 1-1.955.699zm6.933-1.959a2.013 2.013 0 0 0-.277-.652c-.13-.201-.281-.334-.453-.397-.457.251-.789.729-.996 1.437-.202.699-.238 1.32-.11 1.866s.343.853.644.924c.486-.22.836-.67 1.05-1.349.219-.688.266-1.297.141-1.828zm-2.771.758c.118-.611.333-1.141.646-1.589.318-.457.686-.735 1.104-.834.425-.101.821-.004 1.19.29.367.287.611.689.733 1.206.12.51.12 1.063-.001 1.661a3.802 3.802 0 0 1-.717 1.573c-.35.45-.769.732-1.258.848-.361.086-.701-.009-1.021-.285s-.539-.669-.659-1.179c-.122-.517-.128-1.08-.017-1.69zm7.584-1.9a2.013 2.013 0 0 0-.277-.652c-.13-.201-.28-.334-.453-.397-.457.251-.789.729-.996 1.437-.202.699-.238 1.32-.11 1.866s.343.853.644.924c.486-.22.836-.67 1.05-1.349.219-.688.266-1.297.141-1.828zm-2.771.758c.118-.611.333-1.141.646-1.589.318-.457.687-.735 1.104-.834.425-.101.821-.004 1.19.29.367.287.611.689.733 1.206.12.51.12 1.064-.001 1.661a3.802 3.802 0 0 1-.717 1.573c-.35.45-.769.732-1.258.848-.361.086-.701-.009-1.021-.285s-.539-.669-.659-1.179c-.122-.517-.128-1.08-.017-1.69zm7.794-6.999c.113-.027.276.047.489.22.218.165.349.34.393.524s.079.729.105 1.635c.025.899.029 1.837.013 2.813-.022 2.189-.115 3.303-.277 3.342-.099.023-.223-.011-.372-.102-.143-.101-.226-.197-.248-.289s-.04-.282-.056-.57c-.527.873-1.049 1.371-1.566 1.493-.311.074-.628-.001-.95-.223-.315-.225-.508-.489-.58-.794-.104-.439-.109-.987-.018-1.645.097-.666.31-1.3.639-1.902s.745-.962 1.248-1.081.924.099 1.264.654c.007-1.587-.074-2.821-.244-3.7-.05-.213.003-.337.159-.374zm.062 5.494c-.09-.382-.233-.689-.43-.919-.189-.232-.376-.326-.56-.282-.305.072-.572.334-.802.785s-.383.944-.459 1.478c-.071.525-.064.965.019 1.319.03.128.1.219.211.275s.229.069.357.039c.276-.066.601-.352.975-.86a3.581 3.581 0 0 0 .7-1.647l.002-.135-.013-.053zm6.779-.644c.137.581-.01 1.132-.44 1.653a3.03 3.03 0 0 1-1.668 1.013c-.673.16-1.269.118-1.79-.125-.523-.25-.82-.531-.894-.842-.05-.212-.011-.334.116-.364.113-.027.376.09.789.351.156.09.352.163.59.219.245.054.487.053.728-.004a2.385 2.385 0 0 0 1.227-.695c.329-.347.459-.67.389-.967-.045-.191-.23-.405-.555-.642s-.674-.45-1.048-.638c-.368-.197-.715-.417-1.042-.661s-.511-.455-.553-.632c-.042-.177-.051-.373-.027-.588s.068-.379.131-.491c.204-.37.567-.752 1.087-1.144.528-.394.99-.639 1.386-.733.205-.049.395-.023.568.078s.278.226.313.375c.017.071-.044.145-.183.223s-.352.188-.64.331a5.176 5.176 0 0 0-.741.423c-.741.505-1.077.902-1.008 1.193.037.156.554.493 1.551 1.012.384.201.747.455 1.088.763.347.299.556.597.626.895zm2.438.532c.032.135.125.183.281.146.269-.064.577-.215.924-.455.353-.248.55-.377.593-.387.127-.03.207.022.239.156.048.205-.108.493-.469.863-.354.368-.705.594-1.052.676-.34.081-.645.056-.915-.075-.272-.137-.431-.305-.478-.504s-.064-.46-.05-.785c.011-.332.036-.768.073-1.308.043-.549.071-1 .084-1.355-.314.157-.528.249-.642.276s-.24-.003-.38-.089c-.135-.095-.214-.196-.239-.302-.04-.17.382-.442 1.265-.816a7.66 7.66 0 0 0-.177-1.607c-.05-.213-.004-.335.137-.369.12-.029.287.014.501.128.212.107.341.256.386.447s.064.542.057 1.052c.395-.131.713-.225.954-.282.425-.101.659-.059.702.125.025.106-.071.223-.288.349-.21.125-.665.349-1.367.672-.017.595-.053 1.28-.109 2.057-.058.769-.069 1.232-.032 1.387zm4.751-5.57c.319-.076.651.018.997.28.344.255.547.513.609.775.06.255.033.538-.08.849.11.086.174.168.193.246.047.198.081.549.102 1.053.029.502.05.83.064.983a3.4 3.4 0 0 1 .05.639c.013.184-.029.287-.129.311-.127.03-.26-.054-.396-.254a3.191 3.191 0 0 1-.343-.838c-.441.95-.931 1.489-1.469 1.616-.326.077-.68.016-1.064-.185-.378-.209-.603-.463-.673-.76-.1-.425-.068-.986.097-1.683.163-.704.435-1.36.815-1.966s.79-.962 1.229-1.066zm.93 1.754c-.155-.659-.364-.957-.626-.895-.276.066-.551.34-.826.824-.276.477-.483.994-.621 1.55s-.173.98-.104 1.27a.37.37 0 0 0 .219.262.606.606 0 0 0 .376.023c.333-.079.655-.391.968-.937a3.84 3.84 0 0 0 .483-1.853c-.004-.111.041-.189.135-.234l-.002-.011z"/><path fill="#bbf330" style="fill:var(--color3,#bbf330)" d="M32.978 19.975a.912.912 0 0 0-.642.603c-1.901 5.652-7.227 9.717-13.492 9.717-3.8 0-7.254-1.495-9.808-3.933a.917.917 0 0 0-.85-.234c-.639.159-.881.932-.408 1.39a15.857 15.857 0 0 0 11.067 4.483c7.06 0 13.048-4.605 15.144-10.986.206-.626-.371-1.198-1.01-1.04zM4.171 14.148a.907.907 0 0 0 .666-.725C6.046 6.754 11.861 1.705 18.844 1.705c4.541 0 8.588 2.135 11.196 5.463.22.281.582.416.928.33.584-.145.848-.823.48-1.298C28.532 2.428 23.971 0 18.845 0 10.984 0 4.451 5.71 3.142 13.224c-.103.593.447 1.07 1.031.925z"/><path fill="#bbf330" style="fill:var(--color3,#bbf330);stroke:var(--color3,#bbf330)" stroke="#bbf330" stroke-linejoin="round" stroke-width=".627" d="M42.816 5.331c-3.768 7.241-5.422 2.465-10.725 5.271.53-8.406 6.148-3.291 10.725-5.271z"/></symbol><symbol id="icon-rocket" viewBox="0 0 32 32"><path fill="#7eb101" style="fill:var(--color4,#7eb101)" d="m7.233 13.633 3.533 1.5c.4-.8.828-1.589 1.283-2.367s.939-1.522 1.45-2.233L10.866 10l-3.633 3.633zm5.134 2.7 4.433 4.433c1.267-.578 2.456-1.233 3.567-1.967s2.011-1.444 2.7-2.133c1.8-1.8 3.122-3.644 3.967-5.533s1.3-4.022 1.367-6.4c-2.378.067-4.511.522-6.4 1.367s-3.733 2.167-5.533 3.967c-.689.689-1.4 1.589-2.133 2.7s-1.389 2.3-1.967 3.567zm7.633-3.2c-.444-.444-.667-.995-.667-1.65s.222-1.206.667-1.65.994-.667 1.65-.667c.656 0 1.206.222 1.65.667s.667.994.667 1.65c0 .655-.222 1.206-.667 1.65s-.994.667-1.65.667-1.206-.222-1.65-.667zM19.5 25.9l3.633-3.633-.533-2.633c-.711.511-1.456.994-2.233 1.45S18.8 21.967 18 22.367l1.5 3.533zM30.367 2.767c.2 3.022-.178 5.778-1.133 8.267s-2.533 4.833-4.733 7.033l-.133.133.733 3.667c.067.333.05.656-.05.967s-.272.589-.517.833l-5.7 5.733-2.833-6.6-5.667-5.667-6.6-2.833 5.733-5.7c.244-.244.522-.417.833-.517s.633-.117.967-.05l3.667.733c.022-.022.044-.039.067-.05s.044-.028.067-.05c2.2-2.2 4.544-3.783 7.033-4.75s5.244-1.35 8.267-1.15zm-24.4 18.4c.778-.778 1.728-1.172 2.85-1.183s2.072.372 2.85 1.15c.778.778 1.161 1.728 1.15 2.85s-.406 2.072-1.183 2.85c-.578.578-1.472 1.055-2.683 1.433s-3.028.733-5.45 1.067c.333-2.422.683-4.244 1.05-5.467s.839-2.122 1.417-2.7zm1.4 1.433c-.311.333-.589.856-.833 1.567s-.456 1.622-.633 2.733c1.111-.178 2.022-.389 2.733-.633s1.233-.522 1.567-.833c.422-.378.639-.85.65-1.417s-.183-1.061-.583-1.483c-.422-.4-.917-.595-1.483-.583s-1.039.228-1.417.65z"/></symbol><symbol id="icon-star" viewBox="0 0 36 32"><path fill="#ffe550" style="fill:var(--color1,#ffe550)" d="M17.157 1.037c.593-1.383 2.611-1.383 3.204 0l3.498 8.164c.25.583.815.982 1.463 1.032l9.079.707c1.538.12 2.162 1.983.99 2.958l-6.918 5.752a1.656 1.656 0 0 0-.559 1.67l2.113 8.6c.358 1.457-1.275 2.609-2.592 1.828l-7.773-4.609a1.781 1.781 0 0 0-1.809 0l-7.773 4.609c-1.317.781-2.95-.371-2.592-1.828l2.113-8.6a1.656 1.656 0 0 0-.559-1.67l-6.918-5.752c-1.172-.975-.548-2.838.99-2.958l9.079-.707a1.73 1.73 0 0 0 1.463-1.032l3.498-8.164z"/></symbol><symbol id="icon-touch" viewBox="0 0 32 32"><path fill="#7eb101" style="fill:var(--color4,#7eb101)" d="M15.5 1.333c2.022 0 3.75.706 5.183 2.117s2.15 3.128 2.15 5.15c0 1.156-.25 2.244-.75 3.267s-1.206 1.889-2.117 2.6h-1.133V12.8c.645-.511 1.139-1.133 1.483-1.867s.517-1.511.517-2.333c0-1.467-.522-2.711-1.567-3.733s-2.3-1.533-3.767-1.533-2.722.511-3.767 1.533c-1.044 1.022-1.567 2.267-1.567 3.733 0 .822.172 1.6.517 2.333s.839 1.356 1.483 1.867v2.4c-1.245-.645-2.222-1.556-2.933-2.733S8.165 10 8.165 8.6c0-2.022.717-3.739 2.15-5.15s3.161-2.117 5.183-2.117zm-1.267 28c-.378 0-.733-.072-1.067-.217s-.622-.339-.867-.583l-6.867-6.867 1.867-1.933c.311-.311.661-.55 1.05-.717s.794-.194 1.217-.083l2.6.6V8.666c0-.933.322-1.722.967-2.367s1.433-.967 2.367-.967 1.722.322 2.367.967c.644.644.967 1.433.967 2.367v5.733h.867c.111 0 .211.022.3.067s.189.089.3.133l4.933 2.4c.533.244.928.639 1.183 1.183s.328 1.106.217 1.683l-1.2 7.267c-.111.645-.422 1.172-.933 1.583s-1.089.617-1.733.617h-8.533zm-.266-2h9.367l1.433-8.3-6.1-3.033h-1.833V8.667c0-.4-.122-.722-.367-.967s-.567-.367-.967-.367-.722.122-.967.367c-.244.244-.367.567-.367.967v13.3l-5.133-1.1-.767.767 5.7 5.7zm9.366 0z"/></symbol></defs></svg>