<svg aria-hidden="true" style="position: absolute; width: 0; height: 0; overflow: hidden;" version="1.1" xmlns="http://www.w3.org/2000/svg" xmlns:xlink="http://www.w3.org/1999/xlink">
<defs>
<symbol id="icon-logo" viewBox="0 0 44 32">
<path fill="#ffe550" style="fill: var(--color1, #ffe550)" d="M16.394 6.486c1.012-1.989 3.853-1.989 4.865 0l1.259 2.476c0.396 0.778 1.14 1.32 2.002 1.458l2.752 0.439c2.197 0.351 3.074 3.042 1.504 4.62l-1.981 1.991c-0.614 0.617-0.897 1.489-0.761 2.349l0.435 2.769c0.346 2.202-1.951 3.868-3.937 2.854l-2.465-1.259c-0.779-0.398-1.702-0.398-2.482 0l-2.465 1.259c-1.985 1.014-4.283-0.652-3.937-2.854l0.435-2.769c0.135-0.859-0.148-1.732-0.761-2.349l-1.981-1.991c-1.57-1.577-0.693-4.269 1.504-4.62l2.752-0.439c0.862-0.138 1.607-0.68 2.002-1.458l1.259-2.476z"></path>
<path fill="#2c2c2c" style="fill: var(--color2, #2c2c2c)" d="M3.427 20.356l-0.021 0.005c0.003 0.074-0.001 0.374-0.012 0.9-0.003 0.524-0.005 0.869-0.003 1.033-0 0.157-0.004 0.285-0.010 0.384 0 0.097 0.001 0.209 0.001 0.336-0.002 0.12-0.008 0.219-0.020 0.296-0.006 0.069-0.012 0.138-0.019 0.206-0.014 0.13-0.042 0.201-0.085 0.211-0.092 0.022-0.236-0.049-0.431-0.212-0.197-0.17-0.311-0.319-0.341-0.446s-0.037-1.061-0.021-2.8c0.023-1.741-0.022-2.885-0.137-3.434-0.025-0.106-0.020-0.197 0.014-0.273 0.036-0.166 0.22-0.321 0.551-0.467 0.339-0.148 0.845-0.301 1.517-0.461 0.68-0.161 1.219-0.252 1.618-0.272 0.406-0.022 0.624 0.031 0.654 0.159 0.020 0.085-0.026 0.159-0.138 0.223s-0.212 0.117-0.299 0.161c-0.089 0.036-0.205 0.082-0.349 0.139-0.145 0.049-0.28 0.096-0.404 0.141-0.126 0.037-0.289 0.091-0.489 0.161-0.193 0.068-0.372 0.133-0.537 0.195-0.167 0.055-0.391 0.134-0.673 0.238s-0.465 0.17-0.548 0.197c0.012 0.020 0.023 0.051 0.033 0.093 0.079 0.333 0.121 1.131 0.127 2.393 0.444-0.083 0.912-0.205 1.405-0.367 0.5-0.163 0.806-0.259 0.92-0.286 0.269-0.064 0.417-0.039 0.444 0.074 0.052 0.22-0.213 0.477-0.794 0.772-0.574 0.293-1.225 0.526-1.955 0.699zM10.36 18.397c-0.057-0.241-0.149-0.458-0.277-0.652-0.13-0.201-0.281-0.334-0.453-0.397-0.457 0.251-0.789 0.729-0.996 1.437-0.202 0.699-0.238 1.32-0.11 1.866s0.343 0.853 0.644 0.924c0.486-0.22 0.836-0.67 1.050-1.349 0.219-0.688 0.266-1.297 0.141-1.828zM7.589 19.155c0.118-0.611 0.333-1.141 0.646-1.589 0.318-0.457 0.686-0.735 1.104-0.834 0.425-0.101 0.821-0.004 1.19 0.29 0.367 0.287 0.611 0.689 0.733 1.206 0.12 0.51 0.12 1.063-0.001 1.661-0.123 0.59-0.362 1.114-0.717 1.573-0.35 0.45-0.769 0.732-1.258 0.848-0.361 0.086-0.701-0.009-1.021-0.285s-0.539-0.669-0.659-1.179c-0.122-0.517-0.128-1.080-0.017-1.69zM15.173 17.255c-0.057-0.241-0.149-0.458-0.277-0.652-0.13-0.201-0.28-0.334-0.453-0.397-0.457 0.251-0.789 0.729-0.996 1.437-0.202 0.699-0.238 1.32-0.11 1.866s0.343 0.853 0.644 0.924c0.486-0.22 0.836-0.67 1.050-1.349 0.219-0.688 0.266-1.297 0.141-1.828zM12.402 18.013c0.118-0.611 0.333-1.141 0.646-1.589 0.318-0.457 0.687-0.735 1.104-0.834 0.425-0.101 0.821-0.004 1.19 0.29 0.367 0.287 0.611 0.689 0.733 1.206 0.12 0.51 0.12 1.064-0.001 1.661-0.123 0.59-0.362 1.114-0.717 1.573-0.35 0.45-0.769 0.732-1.258 0.848-0.361 0.086-0.701-0.009-1.021-0.285s-0.539-0.669-0.659-1.179c-0.122-0.517-0.128-1.080-0.017-1.69zM20.196 11.014c0.113-0.027 0.276 0.047 0.489 0.22 0.218 0.165 0.349 0.34 0.393 0.524s0.079 0.729 0.105 1.635c0.025 0.899 0.029 1.837 0.013 2.813-0.022 2.189-0.115 3.303-0.277 3.342-0.099 0.023-0.223-0.011-0.372-0.102-0.143-0.101-0.226-0.197-0.248-0.289s-0.040-0.282-0.056-0.57c-0.527 0.873-1.049 1.371-1.566 1.493-0.311 0.074-0.628-0.001-0.95-0.223-0.315-0.225-0.508-0.489-0.58-0.794-0.104-0.439-0.109-0.987-0.018-1.645 0.097-0.666 0.31-1.3 0.639-1.902s0.745-0.962 1.248-1.081c0.503-0.119 0.924 0.099 1.264 0.654 0.007-1.587-0.074-2.821-0.244-3.7-0.050-0.213 0.003-0.337 0.159-0.374zM20.258 16.508c-0.090-0.382-0.233-0.689-0.43-0.919-0.189-0.232-0.376-0.326-0.56-0.282-0.305 0.072-0.572 0.334-0.802 0.785s-0.383 0.944-0.459 1.478c-0.071 0.525-0.064 0.965 0.019 1.319 0.030 0.128 0.1 0.219 0.211 0.275s0.229 0.069 0.357 0.039c0.276-0.066 0.601-0.352 0.975-0.86 0.381-0.509 0.614-1.058 0.7-1.647l0.002-0.135-0.013-0.053zM27.037 15.864c0.137 0.581-0.010 1.132-0.44 1.653-0.432 0.514-0.988 0.852-1.668 1.013-0.673 0.16-1.269 0.118-1.79-0.125-0.523-0.25-0.82-0.531-0.894-0.842-0.050-0.212-0.011-0.334 0.116-0.364 0.113-0.027 0.376 0.090 0.789 0.351 0.156 0.090 0.352 0.163 0.59 0.219 0.245 0.054 0.487 0.053 0.728-0.004 0.496-0.118 0.905-0.349 1.227-0.695 0.329-0.347 0.459-0.67 0.389-0.967-0.045-0.191-0.23-0.405-0.555-0.642s-0.674-0.45-1.048-0.638c-0.368-0.197-0.715-0.417-1.042-0.661s-0.511-0.455-0.553-0.632c-0.042-0.177-0.051-0.373-0.027-0.588s0.068-0.379 0.131-0.491c0.204-0.37 0.567-0.752 1.087-1.144 0.528-0.394 0.99-0.639 1.386-0.733 0.205-0.049 0.395-0.023 0.568 0.078s0.278 0.226 0.313 0.375c0.017 0.071-0.044 0.145-0.183 0.223s-0.352 0.188-0.64 0.331c-0.282 0.134-0.529 0.275-0.741 0.423-0.741 0.505-1.077 0.902-1.008 1.193 0.037 0.156 0.554 0.493 1.551 1.012 0.384 0.201 0.747 0.455 1.088 0.763 0.347 0.299 0.556 0.597 0.626 0.895zM29.475 16.396c0.032 0.135 0.125 0.183 0.281 0.146 0.269-0.064 0.577-0.215 0.924-0.455 0.353-0.248 0.55-0.377 0.593-0.387 0.127-0.030 0.207 0.022 0.239 0.156 0.048 0.205-0.108 0.493-0.469 0.863-0.354 0.368-0.705 0.594-1.052 0.676-0.34 0.081-0.645 0.056-0.915-0.075-0.272-0.137-0.431-0.305-0.478-0.504s-0.064-0.46-0.050-0.785c0.011-0.332 0.036-0.768 0.073-1.308 0.043-0.549 0.071-1 0.084-1.355-0.314 0.157-0.528 0.249-0.642 0.276s-0.24-0.003-0.38-0.089c-0.135-0.095-0.214-0.196-0.239-0.302-0.040-0.17 0.382-0.442 1.265-0.816-0.011-0.618-0.070-1.154-0.177-1.607-0.050-0.213-0.004-0.335 0.137-0.369 0.12-0.029 0.287 0.014 0.501 0.128 0.212 0.107 0.341 0.256 0.386 0.447s0.064 0.542 0.057 1.052c0.395-0.131 0.713-0.225 0.954-0.282 0.425-0.101 0.659-0.059 0.702 0.125 0.025 0.106-0.071 0.223-0.288 0.349-0.21 0.125-0.665 0.349-1.367 0.672-0.017 0.595-0.053 1.28-0.109 2.057-0.058 0.769-0.069 1.232-0.032 1.387zM34.226 10.826c0.319-0.076 0.651 0.018 0.997 0.28 0.344 0.255 0.547 0.513 0.609 0.775 0.060 0.255 0.033 0.538-0.080 0.849 0.11 0.086 0.174 0.168 0.193 0.246 0.047 0.198 0.081 0.549 0.102 1.053 0.029 0.502 0.050 0.83 0.064 0.983 0.021 0.152 0.035 0.276 0.043 0.371 0.006 0.088 0.008 0.178 0.007 0.268 0.013 0.184-0.029 0.287-0.129 0.311-0.127 0.030-0.26-0.054-0.396-0.254-0.131-0.208-0.246-0.488-0.343-0.838-0.441 0.95-0.931 1.489-1.469 1.616-0.326 0.077-0.68 0.016-1.064-0.185-0.378-0.209-0.603-0.463-0.673-0.76-0.1-0.425-0.068-0.986 0.097-1.683 0.163-0.704 0.435-1.36 0.815-1.966s0.79-0.962 1.229-1.066zM35.156 12.58c-0.155-0.659-0.364-0.957-0.626-0.895-0.276 0.066-0.551 0.34-0.826 0.824-0.276 0.477-0.483 0.994-0.621 1.55s-0.173 0.98-0.104 1.27c0.028 0.12 0.101 0.208 0.219 0.262 0.116 0.047 0.241 0.055 0.376 0.023 0.333-0.079 0.655-0.391 0.968-0.937 0.311-0.552 0.472-1.17 0.483-1.853-0.004-0.111 0.041-0.189 0.135-0.234l-0.002-0.011z"></path>
<path fill="#bbf330" style="fill: var(--color3, #bbf330)" d="M32.978 19.975c-0.304 0.075-0.543 0.306-0.642 0.603-1.901 5.652-7.227 9.717-13.492 9.717-3.8 0-7.254-1.495-9.808-3.933-0.227-0.216-0.546-0.309-0.85-0.234-0.639 0.159-0.881 0.932-0.408 1.39 2.867 2.776 6.768 4.483 11.067 4.483 7.060 0 13.048-4.605 15.144-10.986 0.206-0.626-0.371-1.198-1.010-1.040zM4.171 14.148c0.346-0.086 0.602-0.374 0.666-0.725 1.209-6.669 7.024-11.718 14.007-11.718 4.541 0 8.588 2.135 11.196 5.463 0.22 0.281 0.582 0.416 0.928 0.33 0.584-0.145 0.848-0.823 0.48-1.298-2.916-3.772-7.477-6.2-12.603-6.2-7.861 0-14.394 5.71-15.703 13.224-0.103 0.593 0.447 1.070 1.031 0.925z"></path>
<path fill="#bbf330" style="fill: var(--color3, #bbf330); stroke: var(--color3, #bbf330)" stroke="#bbf330" stroke-linejoin="round" stroke-linecap="butt" stroke-miterlimit="4" stroke-width="0.6275" d="M42.816 5.331c-3.768 7.241-5.422 2.465-10.725 5.271 0.53-8.406 6.148-3.291 10.725-5.271z"></path>
</symbol>
<symbol id="icon-rocket" viewBox="0 0 32 32">
<path fill="#7eb101" style="fill: var(--color4, #7eb101)" d="M7.233 13.633l3.533 1.5c0.4-0.8 0.828-1.589 1.283-2.367s0.939-1.522 1.45-2.233l-2.633-0.533-3.633 3.633zM12.367 16.333l4.433 4.433c1.267-0.578 2.456-1.233 3.567-1.967s2.011-1.444 2.7-2.133c1.8-1.8 3.122-3.644 3.967-5.533s1.3-4.022 1.367-6.4c-2.378 0.067-4.511 0.522-6.4 1.367s-3.733 2.167-5.533 3.967c-0.689 0.689-1.4 1.589-2.133 2.7s-1.389 2.3-1.967 3.567zM20 13.133c-0.444-0.444-0.667-0.995-0.667-1.65s0.222-1.206 0.667-1.65 0.994-0.667 1.65-0.667c0.656 0 1.206 0.222 1.65 0.667s0.667 0.994 0.667 1.65c0 0.655-0.222 1.206-0.667 1.65s-0.994 0.667-1.65 0.667-1.206-0.222-1.65-0.667zM19.5 25.9l3.633-3.633-0.533-2.633c-0.711 0.511-1.456 0.994-2.233 1.45s-1.567 0.883-2.367 1.283l1.5 3.533zM30.367 2.767c0.2 3.022-0.178 5.778-1.133 8.267s-2.533 4.833-4.733 7.033l-0.133 0.133 0.733 3.667c0.067 0.333 0.050 0.656-0.050 0.967s-0.272 0.589-0.517 0.833l-5.7 5.733-2.833-6.6-5.667-5.667-6.6-2.833 5.733-5.7c0.244-0.244 0.522-0.417 0.833-0.517s0.633-0.117 0.967-0.050l3.667 0.733c0.022-0.022 0.044-0.039 0.067-0.050s0.044-0.028 0.067-0.050c2.2-2.2 4.544-3.783 7.033-4.75s5.244-1.35 8.267-1.15zM5.967 21.167c0.778-0.778 1.728-1.172 2.85-1.183s2.072 0.372 2.85 1.15c0.778 0.778 1.161 1.728 1.15 2.85s-0.406 2.072-1.183 2.85c-0.578 0.578-1.472 1.055-2.683 1.433s-3.028 0.733-5.45 1.067c0.333-2.422 0.683-4.244 1.050-5.467s0.839-2.122 1.417-2.7zM7.367 22.6c-0.311 0.333-0.589 0.856-0.833 1.567s-0.456 1.622-0.633 2.733c1.111-0.178 2.022-0.389 2.733-0.633s1.233-0.522 1.567-0.833c0.422-0.378 0.639-0.85 0.65-1.417s-0.183-1.061-0.583-1.483c-0.422-0.4-0.917-0.595-1.483-0.583s-1.039 0.228-1.417 0.65z"></path>
</symbol>
<symbol id="icon-star" viewBox="0 0 36 32">
<path fill="#ffe550" style="fill: var(--color1, #ffe550)" d="M17.157 1.037c0.593-1.383 2.611-1.383 3.204 0l3.498 8.164c0.25 0.583 0.815 0.982 1.463 1.032l9.079 0.707c1.538 0.12 2.162 1.983 0.99 2.958l-6.918 5.752c-0.494 0.411-0.71 1.056-0.559 1.67l2.113 8.6c0.358 1.457-1.275 2.609-2.592 1.828l-7.773-4.609c-0.555-0.329-1.254-0.329-1.809 0l-7.773 4.609c-1.317 0.781-2.95-0.371-2.592-1.828l2.113-8.6c0.151-0.614-0.065-1.259-0.559-1.67l-6.918-5.752c-1.172-0.975-0.548-2.838 0.99-2.958l9.079-0.707c0.649-0.050 1.213-0.449 1.463-1.032l3.498-8.164z"></path>
</symbol>
<symbol id="icon-menu" viewBox="0 0 32 32">
<path fill="#7eb101" style="fill: var(--color2, #7eb101)" d="M2.666 8c0-0.354 0.14-0.693 0.391-0.943s0.589-0.391 0.943-0.391h24c0.354 0 0.693 0.14 0.943 0.391s0.39 0.589 0.39 0.943c0 0.354-0.14 0.693-0.39 0.943s-0.589 0.391-0.943 0.391h-24c-0.354 0-0.693-0.14-0.943-0.391s-0.391-0.589-0.391-0.943zM2.666 16.043c0-0.354 0.14-0.693 0.391-0.943s0.589-0.39 0.943-0.39h24c0.354 0 0.693 0.14 0.943 0.39s0.39 0.589 0.39 0.943c0 0.354-0.14 0.693-0.39 0.943s-0.589 0.39-0.943 0.39h-24c-0.354 0-0.693-0.14-0.943-0.39s-0.391-0.589-0.391-0.943zM4 22.752c-0.354 0-0.693 0.141-0.943 0.39s-0.391 0.589-0.391 0.943 0.14 0.693 0.391 0.943c0.25 0.25 0.589 0.39 0.943 0.39h24c0.354 0 0.693-0.14 0.943-0.39s0.39-0.589 0.39-0.943c0-0.354-0.14-0.693-0.39-0.943s-0.589-0.39-0.943-0.39h-24z"></path>
</symbol>
<symbol id="icon-warn" viewBox="0 0 32 32">
<path fill="none" stroke="#ff705d" style="stroke: var(--color1, #ff705d)" stroke-linejoin="round" stroke-linecap="round" stroke-miterlimit="4" stroke-width="2.2857" d="M16 11.429v6.857"></path>
<path fill="none" stroke="#ff705d" style="stroke: var(--color1, #ff705d)" stroke-linejoin="round" stroke-linecap="round" stroke-miterlimit="4" stroke-width="2.2857" d="M16.002 26.286c0.631 0 1.143-0.512 1.143-1.143s-0.512-1.143-1.143-1.143c-0.631 0-1.143 0.512-1.143 1.143s0.512 1.143 1.143 1.143z"></path>
<path fill="none" stroke="#ff705d" style="stroke: var(--color1, #ff705d)" stroke-linejoin="round" stroke-linecap="round" stroke-miterlimit="4" stroke-width="2.2857" d="M18.036 2.4c-0.192-0.374-0.483-0.689-0.842-0.908s-0.771-0.336-1.192-0.336c-0.421 0-0.833 0.116-1.192 0.336s-0.65 0.534-0.842 0.908l-12.571 25.143c-0.175 0.348-0.259 0.735-0.242 1.124s0.132 0.768 0.336 1.1c0.204 0.332 0.489 0.606 0.829 0.797s0.723 0.291 1.112 0.293h25.143c0.39-0.001 0.772-0.102 1.112-0.293s0.625-0.465 0.829-0.797c0.204-0.332 0.319-0.711 0.336-1.1s-0.067-0.776-0.243-1.124l-12.571-25.143z"></path>
</symbol>
<symbol id="icon-touch" viewBox="0 0 32 32">
<path fill="#7eb101" style="fill: var(--color4, #7eb101)" d="M15.5 1.333c2.022 0 3.75 0.706 5.183 2.117s2.15 3.128 2.15 5.15c0 1.156-0.25 2.244-0.75 3.267s-1.206 1.889-2.117 2.6h-1.133v-1.667c0.645-0.511 1.139-1.133 1.483-1.867s0.517-1.511 0.517-2.333c0-1.467-0.522-2.711-1.567-3.733s-2.3-1.533-3.767-1.533-2.722 0.511-3.767 1.533c-1.044 1.022-1.567 2.267-1.567 3.733 0 0.822 0.172 1.6 0.517 2.333s0.839 1.356 1.483 1.867v2.4c-1.245-0.645-2.222-1.556-2.933-2.733s-1.067-2.467-1.067-3.867c0-2.022 0.717-3.739 2.15-5.15s3.161-2.117 5.183-2.117zM14.233 29.333c-0.378 0-0.733-0.072-1.067-0.217s-0.622-0.339-0.867-0.583l-6.867-6.867 1.867-1.933c0.311-0.311 0.661-0.55 1.050-0.717s0.794-0.194 1.217-0.083l2.6 0.6v-10.867c0-0.933 0.322-1.722 0.967-2.367s1.433-0.967 2.367-0.967 1.722 0.322 2.367 0.967c0.644 0.644 0.967 1.433 0.967 2.367v5.733h0.867c0.111 0 0.211 0.022 0.3 0.067s0.189 0.089 0.3 0.133l4.933 2.4c0.533 0.244 0.928 0.639 1.183 1.183s0.328 1.106 0.217 1.683l-1.2 7.267c-0.111 0.645-0.422 1.172-0.933 1.583s-1.089 0.617-1.733 0.617h-8.533zM13.967 27.333h9.367l1.433-8.3-6.1-3.033h-1.833v-7.333c0-0.4-0.122-0.722-0.367-0.967s-0.567-0.367-0.967-0.367-0.722 0.122-0.967 0.367c-0.244 0.244-0.367 0.567-0.367 0.967v13.3l-5.133-1.1-0.767 0.767 5.7 5.7zM23.333 27.333v0z"></path>
</symbol>
</defs>
</svg>
